<svg version="1.1" viewBox="0.0 0.0 225.0 225.0" fill="none" stroke="none" stroke-linecap="square" stroke-miterlimit="10" xmlns:xlink="http://www.w3.org/1999/xlink" xmlns="http://www.w3.org/2000/svg"><clipPath id="p.0"><path d="m0 0l225.0 0l0 225.0l-225.0 0l0 -225.0z" clip-rule="nonzero"/></clipPath><g clip-path="url(#p.0)"><path fill="#000000" fill-opacity="0.0" d="m0 0l225.0 0l0 225.0l-225.0 0z" fill-rule="evenodd"/><path fill="#edc5ab" d="m186.48242 179.85596l2.4228363 -123.0083l20.065353 -6.723976l-2.422821 123.008316z" fill-rule="evenodd"/><path fill="#edc5ab" d="m99.78017 210.86082l90.47145 -49.786377l16.772644 12.904495l-90.47145 49.786377z" fill-rule="evenodd"/><path fill="#ffffff" d="m17.924833 70.01494l88.13015 -67.4875l18.200554 10.794592l-88.13015 67.4875z" fill-rule="evenodd"/><path fill="#ffffff" d="m104.28131 111.408325l0.9715805 -88.41322l18.807953 -9.697017l-0.9715805 88.413216z" fill-rule="evenodd"/><path fill="#ffffff" d="m100.81295 104.98472l89.529945 -65.624245l17.96611 11.167553l-89.52993 65.62425z" fill-rule="evenodd"/><path fill="#ffffff" d="m16.722326 180.55037l1.0421886 -111.00433l19.713718 -7.7043304l-1.0421906 111.00433z" fill-rule="evenodd"/><path fill="#ffffff" d="m115.8775 222.38939l-97.931915 -41.388245l0.010656357 -21.162949l97.931915 41.388245z" fill-rule="evenodd"/></g></svg>